<svg xmlns="http://www.w3.org/2000/svg" viewBox="0 0 512 512" style="enable-background:new 0 0 512 512" xml:space="preserve"><style>.st1{fill:#f1af58}.st2{fill:#3b3b3b}.st3{fill:#e68201}</style><path style="fill:#e9e9e9" d="M0 0h512v512H0z" id="Layer_2"/><g id="Layer_1"><path class="st1" d="M276.6 268.8c-3.3 1.3-6.8 2-10 3.8a26.7 26.7 0 0 0-13.7 20.5c-.9 5.3 0 10.8-1.3 16.2-3 12-13.4 20.3-25.8 20.3a26.7 26.7 0 0 1-27.7-26.7c.1-5.6-.8-11.3-3-16.6-3.8-9.7-11.5-14.3-21.2-16.4-3.8-.8-7.5-.7-11.3-.9a26.3 26.3 0 0 1-.1-52.6c5.5-.3 11-.3 16.3-2.1 11.2-4 17-12 18.5-23.4.8-3.1.8-6.3.9-9.4.2-8.2 3.8-14.7 10.1-19.8 2.6-2 5.7-3.2 8.4-4.8 4.5-.5 9-1 13.5-.1 9.7 2 19.3 11.2 20.7 20.1-1 2.2-.3 4.6-.4 6.8a26 26 0 0 1-24.5 25 24 24 0 0 0-6.7.8c-2.2-.3-4.4 0-6.6.6-10 2.4-17 8.1-20 18a49.2 49.2 0 0 0-.8 26.8 26 26 0 0 0 21.8 20.7 61.4 61.4 0 0 0 17 .8c13-1 23.8-7.6 27-22 .6-3.2.5-6.5 1.2-9.6.6.3.5 1 .6 1.5.7 6.2 3.2 11.4 7.5 16 2.8 2.8 6.3 4.4 9.6 6.5z"/><path class="st2" d="M318.5 431.5c-.7-5.2-1.3-10.4-1.3-15.7 0-22.1 0-44.2-.2-66.4 0-1.3.3-1.9 1.8-1.9h16.3c1.7 0 2 .6 2 2V463c0 1.9-.8 2-2.3 2h-22.3c-1.6 0-2.3-.5-3-2l-29.8-70.2c-1.6-3.6-3-7.3-4.7-10.9-.2-.6-.2-1.5-1.4-1.8-.4 1.2 0 2.4.1 3.5a104 104 0 0 1 1.4 17v61.9c0 2-.5 2.6-2.6 2.6-5.2-.2-10.4-.2-15.6 0-1.5 0-2-.5-2-2 .1-37.8.1-75.6 0-113.4 0-1.7.6-2 2.2-2h22.4c1.8-.1 2.6.6 3.2 2.2l34.1 79.7 1 2.1h.7z"/><path class="st3" d="M219.3 209.5a24 24 0 0 1 6.7-.9 26 26 0 0 0 24.6-24.8c0-2.3-.7-4.7.4-6.9 1 4 .6 8 1 12 .8 7.3 2.7 14.1 8 19.6 4.7 4.8 10.5 7 17 8 1.3.2 2.8-.2 4.2-.4 2.7-.5 5.4-.4 8.2 0a24.8 24.8 0 0 0 23.8-9.9c4.8-5.9 6-13.1 6.2-20.5a30 30 0 0 1 6-19 26.2 26.2 0 0 1 46.7 15.5 26 26 0 0 1-25.8 27.4 51 51 0 0 0-15.8 2.5c-10.4 3.7-15.7 11.5-17.7 21.9-.9 4.9-.8 9.8-1 14.8-.7.5-.6 1.5-.9 2.2-2 7-6.4 12-12.4 15.7-1.2.7-2.6.8-3.4 2-2.6.4-5.2.9-7.9 1.2-3.6.5-7-.8-10.6-1.1-3.3-2.1-6.8-3.7-9.6-6.6a26.5 26.5 0 0 1-7.5-15.9c0-.5 0-1.2-.6-1.5 0-3.6.2-7.2-.4-10.8-2-12-9.5-20.1-21.2-23-6-1.4-12-1.2-18-1.5z"/><path class="st2" d="M234.3 406.1v56.4c0 2-.4 2.5-2.4 2.4h-17.1c-2 0-2.4-.5-2.3-2.3v-46.3c0-2.3-.5-3-2.8-2.9h-24c-1.7 0-2.1.5-2.1 2.3v46.7c0 2-.4 2.6-2.4 2.5h-16.6c-2.2.1-2.7-.5-2.7-2.7V350c-.1-2.2.6-2.7 2.6-2.6H181c2.1 0 2.8.4 2.8 2.7l-.1 41.5c0 2 .5 2.4 2.5 2.4h24c2 0 2.5-.4 2.5-2.3l-.1-41.5c0-2 .3-3 2.6-2.8 5.5.2 11 .1 16.6 0 2 0 2.7.5 2.7 2.6l-.1 56z"/><path class="st3" d="M216.7 156.9c-2.7 1.7-5.8 2.7-8.4 4.8a25.5 25.5 0 0 0-10.1 19.8c-.1 3.2-.1 6.3-1 9.4-1.3-3.6-1.1-7.4-1.5-11.2a30.3 30.3 0 0 0-10.6-22c-5-4-11-5.4-17.3-6-4.8-.5-9.7.3-14.5-1a26.3 26.3 0 0 1 1.5-51.3c4.9-1 10-.7 14.9-2a27.2 27.2 0 0 0 22-26.7c.2-3.6 0-7.3.5-11a26.2 26.2 0 0 1 23.2-23 26.2 26.2 0 1 1 5.3 52.3c-3.9.4-7.8.6-11.6 1.5a26.6 26.6 0 0 0-21.9 22.5 51.7 51.7 0 0 0 1.4 24.3 26 26 0 0 0 22.6 19l5.5.6z"/><path class="st1" d="M295.1 268.7c.8-1.2 2.3-1.3 3.4-2 6-3.7 10.4-8.7 12.5-15.6.2-.8.1-1.7.9-2.3 1 3.9 1.7 7.8 3.6 11.4a27 27 0 0 0 20.2 13.8c4 .7 8.2.6 12.2.8a26.4 26.4 0 1 1-27.7 28.7c-.4-6-.6-12-2.9-17.7a26 26 0 0 0-19.5-16.3l-2.7-.8z"/></g></svg>